<svg width="0" height="0" class="hidden">
  <symbol xmlns="http://www.w3.org/2000/svg" viewBox="0 0 172.07 107.64" id="share">
    <path fill="#dbdbdb" d="M171.82,50.71,145.9,1.89a1.92,1.92,0,0,0-3.44,0l-5.53,10.42-1.34,2.52L123.78,37.09l-1.89,3.56-5.34,10.06a2.09,2.09,0,0,0,1.72,3.11h12.92c0,16.81-20.17,30.44-45,30.44C75,84.26,64.79,81.52,56.93,77a2.5,2.5,0,0,0-3.46,1l-9,16.8a2.5,2.5,0,0,0,1.06,3.42,88.79,88.79,0,0,0,40.66,9.47c39.62,0,71.74-24.09,71.74-53.82H170.1A2.09,2.09,0,0,0,171.82,50.71Z"></path>
    <path fill="#dbdbdb" d="M48.38,70.4l7.15-13.47a2.09,2.09,0,0,0-1.72-3.11H41.11c0-16.81,20.16-30.44,45-30.44,11.07,0,21.22,2.71,29.07,7.2a2.5,2.5,0,0,0,3.45-1l9-16.79a2.5,2.5,0,0,0-1.07-3.42A88.76,88.76,0,0,0,86.15,0C46.53,0,14.4,24.1,14.4,53.82H2A2.09,2.09,0,0,0,.26,56.93l25.92,48.82a1.92,1.92,0,0,0,3.44,0l5.28-9.94,1.64-3.11h0l11.84-22.3Z"></path>
  </symbol>
  <symbol xmlns="http://www.w3.org/2000/svg" viewBox="0 0 106.06 101.26" id="star">
    <path fill="#dbdbdb" d="M56.57,2.2l13.1,26.53a4.94,4.94,0,0,0,3.72,2.71l29.28,4.26a4,4,0,0,1,2.19,6.74L83.68,63.09a5,5,0,0,0-1.43,4.38l5,29.16a4,4,0,0,1-5.74,4.16L55.33,87a4.93,4.93,0,0,0-4.6,0L24.54,100.79a3.94,3.94,0,0,1-5.73-4.16l5-29.16a5,5,0,0,0-1.43-4.38L1.2,42.44A4,4,0,0,1,3.39,35.7l29.28-4.26a4.94,4.94,0,0,0,3.72-2.71L49.49,2.2A4,4,0,0,1,56.57,2.2Z"></path>
  </symbol>
  <symbol xmlns="http://www.w3.org/2000/svg" viewBox="0 0 133.69 95.72" id="reply">
    <path fill="#dbdbdb" d="M110.54,2.85V39a2.84,2.84,0,0,1-2.85,2.85H88.43a1,1,0,0,1-1-1V12.21a1,1,0,0,0-1.48-.93L.59,52.51a1,1,0,0,0,0,1.87L85.91,95.62a1,1,0,0,0,1.48-.93V66.06a1,1,0,0,1,1-1h42.41a2.84,2.84,0,0,0,2.85-2.85V2.85A2.84,2.84,0,0,0,130.84,0H113.39A2.85,2.85,0,0,0,110.54,2.85Z"></path>
  </symbol>
  <svg width="0" height="0" class="hidden">
  <symbol xmlns="http://www.w3.org/2000/svg" viewBox="0 0 90.11 66.65" id="arrow-up">
    <polygon fill="#727272" points="45.05 0 0 66.65 45.05 66.65 90.11 66.65 45.05 0"></polygon>
  </symbol>
</svg>
</svg>