<svg xmlns="http://www.w3.org/2000/svg" viewBox="0 0 172.07 107.64"><g id="Layer_2" data-name="Layer 2"><g id="Layer_1-2" data-name="Layer 1"><path d="M171.82,50.71,145.9,1.89a1.92,1.92,0,0,0-3.44,0l-5.53,10.42-1.34,2.52L123.78,37.09l-1.89,3.56-5.34,10.06a2.09,2.09,0,0,0,1.72,3.11h12.92c0,16.81-20.17,30.44-45,30.44C75,84.26,64.79,81.52,56.93,77a2.5,2.5,0,0,0-3.46,1l-9,16.8a2.5,2.5,0,0,0,1.06,3.42,88.79,88.79,0,0,0,40.66,9.47c39.62,0,71.74-24.09,71.74-53.82H170.1A2.09,2.09,0,0,0,171.82,50.71Z"/><path d="M48.38,70.4l7.15-13.47a2.09,2.09,0,0,0-1.72-3.11H41.11c0-16.81,20.16-30.44,45-30.44,11.07,0,21.22,2.71,29.07,7.2a2.5,2.5,0,0,0,3.45-1l9-16.79a2.5,2.5,0,0,0-1.07-3.42A88.76,88.76,0,0,0,86.15,0C46.53,0,14.4,24.1,14.4,53.82H2A2.09,2.09,0,0,0,.26,56.93l25.92,48.82a1.92,1.92,0,0,0,3.44,0l5.28-9.94,1.64-3.11h0l11.84-22.3Z"/></g></g></svg>