<svg xmlns="http://www.w3.org/2000/svg" viewBox="0 0 106.06 101.26"><g id="Layer_2" data-name="Layer 2"><g id="Layer_1-2" data-name="Layer 1"><path d="M56.57,2.2l13.1,26.53a4.94,4.94,0,0,0,3.72,2.71l29.28,4.26a4,4,0,0,1,2.19,6.74L83.68,63.09a5,5,0,0,0-1.43,4.38l5,29.16a4,4,0,0,1-5.74,4.16L55.33,87a4.93,4.93,0,0,0-4.6,0L24.54,100.79a3.94,3.94,0,0,1-5.73-4.16l5-29.16a5,5,0,0,0-1.43-4.38L1.2,42.44A4,4,0,0,1,3.39,35.7l29.28-4.26a4.94,4.94,0,0,0,3.72-2.71L49.49,2.2A4,4,0,0,1,56.57,2.2Z"/></g></g></svg>